<?xml version="1.0" encoding="UTF-8" standalone="no" ?>
<!DOCTYPE svg PUBLIC "-//W3C//DTD SVG 1.1//EN" "http://www.w3.org/Graphics/SVG/1.1/DTD/svg11.dtd">
<svg xmlns="http://www.w3.org/2000/svg" xmlns:xlink="http://www.w3.org/1999/xlink" version="1.1" width="64" height="64" viewBox="-1803.82 -1803.82 64 64" xml:space="preserve">
<desc>Created with Fabric.js 5.2.4</desc>
<defs>
</defs>
<rect x="0" y="0" width="100%" height="100%" fill="transparent"></rect>
<g transform="matrix(1 0 0 1 32 32)" id="f380743f-ee4b-44bd-b553-43f603f8909c"  >
<rect style="stroke: none; stroke-width: 1; stroke-dasharray: none; stroke-linecap: butt; stroke-dashoffset: 0; stroke-linejoin: miter; stroke-miterlimit: 4; fill: rgb(255,255,255); fill-rule: nonzero; opacity: 1; visibility: hidden;" vector-effect="non-scaling-stroke"  x="-32" y="-32" rx="0" ry="0" width="64" height="64" />
</g>
<g transform="matrix(Infinity NaN NaN Infinity 0 0)" id="4f8ac9f8-068e-470c-89b5-a9f41e7eef10"  >
</g>
<g transform="matrix(7.17 0 0 7.17 64 64)" id="07affff3-1eeb-4c6b-9eec-c672599fa0ca"  >
<circle style="stroke: rgb(0,0,0); stroke-width: 0; stroke-dasharray: none; stroke-linecap: butt; stroke-dashoffset: 0; stroke-linejoin: miter; stroke-miterlimit: 4; fill: rgb(255,255,255); fill-rule: nonzero; opacity: 1;" vector-effect="non-scaling-stroke"  cx="0" cy="0" r="35" />
</g>
<g transform="matrix(4.68 0 0 4.68 51.82 64.78)"  >
<path style="stroke: rgb(0,0,0); stroke-width: 0; stroke-dasharray: none; stroke-linecap: butt; stroke-dashoffset: 0; stroke-linejoin: miter; stroke-miterlimit: 4; fill: rgb(13,13,13); fill-rule: nonzero; opacity: 1;" vector-effect="non-scaling-stroke"  transform=" translate(-50, -49.9)" d="M 91.102 58.102 C 89.402 58.102 87.902 59.20399999999999 87.402 60.70399999999999 L 83.402 60.70399999999999 L 80.602 56.50399999999999 C 80.402 56.10599999999999 79.902 55.90299999999999 79.5 55.90299999999999 L 73.301 55.90299999999999 L 73.301 51.3 L 77.001 51.3 C 77.602 52.8 79.001 53.901999999999994 80.7 53.901999999999994 C 82.899 53.901999999999994 84.7 52.10099999999999 84.7 49.901999999999994 C 84.7 47.70199999999999 82.899 45.901999999999994 80.7 45.901999999999994 C 79 45.901999999999994 77.5 47.00299999999999 77 48.50299999999999 L 73.301 48.50299999999999 L 73.301 45.202999999999996 L 74.903 45.202999999999996 C 75.301 45.202999999999996 75.801 45.00299999999999 76.004 44.601 L 78.20400000000001 41.301 L 80.403 41.301 C 81.004 42.801 82.403 43.901 84.102 43.901 C 86.302 43.901 88.102 42.101000000000006 88.102 39.901 C 88.102 37.703 86.302 35.901 84.102 35.901 C 82.402 35.901 80.902 37.003 80.402 38.503 L 77.504 38.503 C 77.10600000000001 38.503 76.60600000000001 38.703 76.403 39.105 L 74.203 42.404999999999994 L 73.305 42.404999999999994 L 73.305 35.30499999999999 L 78.00500000000001 35.30499999999999 C 78.70400000000001 35.30499999999999 79.305 34.702999999999996 79.305 34.00299999999999 C 79.305 33.303999999999995 78.70400000000001 32.702999999999996 78.00500000000001 32.702999999999996 L 73.305 32.702999999999996 C 72.90700000000001 28.502999999999997 69.60600000000001 27.002999999999997 67.305 26.702999999999996 L 67.305 22.002999999999997 C 67.305 21.303999999999995 66.70400000000001 20.702999999999996 66.00500000000001 20.702999999999996 C 65.305 20.702999999999996 64.70400000000001 21.303999999999995 64.70400000000001 22.002999999999997 L 64.70400000000001 26.702999999999996 L 58.80500000000001 26.702999999999996 L 58.80500000000001 21.202999999999996 L 63.00500000000001 18.401999999999994 C 63.40300000000001 18.201999999999995 63.60500000000001 17.701999999999995 63.60500000000001 17.299999999999994 L 63.60500000000001 12.499999999999993 C 65.10500000000002 11.897999999999993 66.20800000000001 10.499999999999993 66.20800000000001 8.799999999999994 C 66.20800000000001 6.600999999999994 64.40700000000001 4.799999999999994 62.20800000000001 4.799999999999994 C 60.009000000000015 4.799999999999994 58.20800000000001 6.600999999999994 58.20800000000001 8.799999999999994 C 58.20800000000001 10.499999999999993 59.30900000000001 11.999999999999993 60.80900000000001 12.499999999999993 L 60.80900000000001 16.499999999999993 L 56.60900000000001 19.299999999999994 C 56.211000000000006 19.499999999999993 56.00900000000001 19.999999999999993 56.00900000000001 20.401999999999994 L 56.00900000000001 26.600999999999992 L 51.40700000000001 26.600999999999992 L 51.40700000000001 22.900999999999993 C 52.90700000000001 22.30099999999999 54.00800000000001 20.900999999999993 54.00800000000001 19.202999999999992 C 54.00800000000001 17.002999999999993 52.20800000000001 15.202999999999992 50.00800000000001 15.202999999999992 C 47.80900000000001 15.202999999999992 46.00800000000001 17.002999999999993 46.00800000000001 19.202999999999992 C 46.00800000000001 20.901999999999994 47.11000000000001 22.401999999999994 48.61000000000001 22.901999999999994 L 48.61000000000001 26.600999999999992 L 45.31000000000001 26.600999999999992 L 45.31000000000001 25 C 45.31000000000001 24.5 45.11000000000001 24.102 44.70800000000001 23.899 L 41.40700000000001 21.699 L 41.40700000000001 19.5 C 42.90700000000001 18.899 44.00800000000001 17.5 44.00800000000001 15.801 C 44.00800000000001 13.602 42.20800000000001 11.801 40.00800000000001 11.801 C 37.80900000000001 11.801 36.00800000000001 13.602 36.00800000000001 15.801 C 36.00800000000001 17.501 37.11000000000001 19.001 38.61000000000001 19.501 L 38.61000000000001 22.399 C 38.61000000000001 22.797 38.81000000000001 23.297 39.212 23.5 L 42.512 25.7 L 42.512 26.598 L 35.411 26.598 L 35.411 21.898 C 35.411 21.2 34.809000000000005 20.598 34.11 20.598 C 33.410999999999994 20.598 32.81 21.2 32.81 21.898 L 32.81 26.598 C 28.610000000000003 26.997 27.110000000000003 30.298 26.810000000000002 32.598 L 22.110000000000003 32.598 C 21.410000000000004 32.598 20.810000000000002 33.199999999999996 20.810000000000002 33.897999999999996 C 20.810000000000002 34.598 21.410000000000004 35.199999999999996 22.110000000000003 35.199999999999996 L 26.810000000000002 35.199999999999996 L 26.810000000000002 41.098 L 21.310000000000002 41.098 L 18.508000000000003 36.897999999999996 C 18.309 36.49999999999999 17.809 36.297999999999995 17.407000000000004 36.297999999999995 L 12.606000000000003 36.297999999999995 C 12.004000000000003 34.797999999999995 10.606000000000003 33.696 8.906000000000002 33.696 C 6.708000000000002 33.696 4.906000000000002 35.495999999999995 4.906000000000002 37.696 C 4.906000000000002 39.894999999999996 6.708000000000002 41.696 8.906000000000002 41.696 C 10.606000000000002 41.696 12.106000000000002 40.594 12.606000000000002 39.094 L 16.606 39.094 L 19.406000000000002 43.294000000000004 C 19.606 43.69200000000001 20.106 43.894000000000005 20.508000000000003 43.894000000000005 L 26.708000000000002 43.894000000000005 L 26.708000000000002 48.49600000000001 L 23.008000000000003 48.49600000000001 C 22.407000000000004 46.99600000000001 21.008000000000003 45.89500000000001 19.309000000000005 45.89500000000001 C 17.110000000000007 45.89500000000001 15.309000000000005 47.69500000000001 15.309000000000005 49.89500000000001 C 15.309000000000005 52.09500000000001 17.110000000000003 53.89500000000001 19.309000000000005 53.89500000000001 C 21.009000000000004 53.89500000000001 22.509000000000004 52.79300000000001 23.009000000000004 51.29300000000001 L 26.708000000000006 51.29300000000001 L 26.708000000000006 54.594000000000015 L 25.106000000000005 54.594000000000015 C 24.606000000000005 54.594000000000015 24.208000000000006 54.79400000000002 24.004000000000005 55.19600000000001 L 21.805000000000007 58.49600000000001 L 19.60600000000001 58.49600000000001 C 19.00400000000001 56.99600000000001 17.60600000000001 55.89500000000001 15.90600000000001 55.89500000000001 C 13.708000000000009 55.89500000000001 11.90600000000001 57.69500000000001 11.90600000000001 59.89500000000001 C 11.90600000000001 62.09500000000001 13.708000000000009 63.89500000000001 15.90600000000001 63.89500000000001 C 17.60600000000001 63.89500000000001 19.10600000000001 62.79300000000001 19.60600000000001 61.29300000000001 L 22.50400000000001 61.29300000000001 C 22.90300000000001 61.29300000000001 23.40300000000001 61.094000000000015 23.60600000000001 60.692000000000014 L 25.806000000000008 57.39100000000001 L 26.704000000000008 57.39100000000001 L 26.704000000000008 64.49200000000002 L 22.00400000000001 64.49200000000002 C 21.305000000000007 64.49200000000002 20.704000000000008 65.09400000000002 20.704000000000008 65.79300000000002 C 20.704000000000008 66.49200000000002 21.305000000000007 67.09400000000002 22.00400000000001 67.09400000000002 L 26.704000000000008 67.09400000000002 C 27.102000000000007 71.29400000000003 30.403000000000006 72.79400000000003 32.70400000000001 73.09400000000002 L 32.70400000000001 77.79400000000003 C 32.70400000000001 78.49200000000002 33.30500000000001 79.09400000000002 34.004000000000005 79.09400000000002 C 34.70400000000001 79.09400000000002 35.30500000000001 78.49300000000002 35.30500000000001 77.79400000000003 L 35.30500000000001 73.09400000000002 L 41.20400000000001 73.09400000000002 L 41.20400000000001 78.59400000000002 L 37.004000000000005 81.39400000000002 C 36.606 81.59400000000002 36.403000000000006 82.09400000000002 36.403000000000006 82.49600000000002 L 36.403000000000006 87.29700000000003 C 34.903000000000006 87.89900000000003 33.80100000000001 89.29700000000003 33.80100000000001 90.99700000000003 C 33.80100000000001 93.19600000000003 35.60200000000001 94.99700000000003 37.80100000000001 94.99700000000003 C 40.00000000000001 94.99700000000003 41.80100000000001 93.19600000000003 41.80100000000001 90.99700000000003 C 41.80100000000001 89.29700000000003 40.70000000000001 87.79700000000003 39.20000000000001 87.29700000000003 L 39.20000000000001 83.29700000000003 L 43.39900000000001 80.49700000000003 C 43.79700000000001 80.29700000000003 44.00000000000001 79.79700000000003 44.00000000000001 79.39500000000002 L 44.00000000000001 73.19500000000002 L 48.602000000000004 73.19500000000002 L 48.602000000000004 76.89500000000002 C 47.102000000000004 77.49600000000002 46.00000000000001 78.89500000000002 46.00000000000001 80.59500000000003 C 46.00000000000001 82.79300000000002 47.80100000000001 84.59500000000003 50.00000000000001 84.59500000000003 C 52.199000000000005 84.59500000000003 54.00000000000001 82.79300000000002 54.00000000000001 80.59500000000003 C 54.00000000000001 78.89500000000002 52.89900000000001 77.39500000000002 51.39900000000001 76.89500000000002 L 51.39900000000001 73.19500000000002 L 54.699000000000005 73.19500000000002 L 54.699000000000005 74.79700000000003 C 54.699000000000005 75.29700000000003 54.89900000000001 75.69600000000003 55.301 75.89900000000003 L 58.602000000000004 78.09900000000003 L 58.602000000000004 80.29700000000003 C 57.102000000000004 80.89900000000003 56.00000000000001 82.29700000000003 56.00000000000001 83.99700000000003 C 56.00000000000001 86.19600000000003 57.80100000000001 87.99700000000003 60.00000000000001 87.99700000000003 C 62.199000000000005 87.99700000000003 64 86.19600000000003 64 83.99700000000003 C 64 82.29700000000003 62.899 80.79700000000003 61.399 80.29700000000003 L 61.399 77.4 C 61.399 77.001 61.199 76.501 60.797000000000004 76.298 L 57.49700000000001 74.099 L 57.49700000000001 73.2 L 64.59800000000001 73.2 L 64.59800000000001 77.899 C 64.59800000000001 78.599 65.20000000000002 79.199 65.89800000000001 79.199 C 66.59800000000001 79.199 67.20000000000002 78.599 67.20000000000002 77.899 L 67.20000000000002 73.199 C 71.39900000000002 72.801 72.89900000000002 69.5 73.20000000000002 67.199 L 77.89900000000002 67.199 C 78.59800000000001 67.199 79.19900000000001 66.599 79.19900000000001 65.899 C 79.19900000000001 65.199 78.59800000000001 64.598 77.89900000000002 64.598 L 73.19900000000001 64.598 L 73.19900000000001 58.7 L 78.69900000000001 58.7 L 81.50000000000001 62.899 C 81.70000000000002 63.297000000000004 82.20000000000002 63.5 82.60200000000002 63.5 L 87.40200000000002 63.5 C 88.00400000000002 65 89.40200000000002 66.102 91.10200000000002 66.102 C 93.30200000000002 66.102 95.10200000000002 64.302 95.10200000000002 62.102000000000004 C 95.10200000000002 59.899 93.30200000000002 58.102000000000004 91.10200000000002 58.102000000000004 z M 80.602 48.699999999999996 C 81.302 48.699999999999996 81.902 49.300999999999995 81.902 49.99999999999999 C 81.902 50.69899999999999 81.302 51.300999999999995 80.602 51.300999999999995 C 79.902 51.300999999999995 79.302 50.699999999999996 79.302 50.001 C 79.302 49.302 79.899 48.699999999999996 80.602 48.699999999999996 z M 84 38.8 C 84.7 38.8 85.301 39.401999999999994 85.301 40.101 C 85.301 40.801 84.7 41.400999999999996 84.001 41.400999999999996 C 83.302 41.400999999999996 82.7 40.800999999999995 82.7 40.101 C 82.7 39.397999999999996 83.301 38.801 84 38.801 z M 62.102 7.602 C 62.802 7.602 63.403 8.204 63.403 8.903 C 63.403 9.603 62.802 10.203000000000001 62.103 10.203000000000001 C 61.403 10.203000000000001 60.802 9.603000000000002 60.802 8.903 C 60.802 8.200000000000001 61.399 7.603000000000001 62.102 7.603000000000001 z M 50 18.102 C 50.7 18.102 51.301 18.704 51.301 19.403 C 51.301 20.102999999999998 50.7 20.703 50.001000000000005 20.703 C 49.30200000000001 20.703 48.7 20.102999999999998 48.7 19.403 C 48.7 18.7 49.301 18.102999999999998 50 18.102999999999998 z M 40.102 14.7 C 40.802 14.7 41.401999999999994 15.302 41.401999999999994 16 C 41.401999999999994 16.698 40.80199999999999 17.302 40.102 17.302 C 39.401999999999994 17.302 38.802 16.7 38.802 16.001 C 38.802 15.302000000000003 39.399 14.700000000000001 40.102 14.700000000000001 z M 8.899 39.2 C 8.199 39.2 7.598999999999999 38.598000000000006 7.598999999999999 37.900000000000006 C 7.598999999999999 37.2 8.199 36.598000000000006 8.899 36.598000000000006 C 9.598999999999998 36.598000000000006 10.199 37.2 10.199 37.89900000000001 C 10.188804425979873 38.6128685389178 9.612860488143678 39.18925551055233 8.899 39.20000000000001 z M 19.399 51.30200000000001 C 18.699 51.30200000000001 18.099 50.70000000000001 18.099 50.00200000000001 C 18.099 49.30400000000001 18.699 48.70000000000001 19.399 48.70000000000001 C 20.099 48.70000000000001 20.699 49.30200000000001 20.699 50.00100000000001 C 20.699 50.70000000000002 20.102 51.302000000000014 19.399 51.302000000000014 z M 16.001 61.2 C 15.301000000000002 61.2 14.700000000000001 60.599000000000004 14.700000000000001 59.900000000000006 C 14.700000000000001 59.2 15.301000000000002 58.599000000000004 16 58.599000000000004 C 16.698999999999998 58.599000000000004 17.301 59.2 17.301 59.899 C 17.301 60.603 16.7 61.2 16.000999999999998 61.2 z M 37.899 92.4 C 37.199 92.4 36.598 91.798 36.598 91.099 C 36.598 90.399 37.199 89.798 37.897999999999996 89.798 C 38.598 89.798 39.199 90.399 39.199 91.098 C 39.18880442597987 91.81186853891779 38.61286048814368 92.38825551055233 37.899 92.399 z M 50 81.9 C 49.3 81.9 48.699 81.298 48.699 80.599 C 48.699 79.899 49.3 79.298 49.998999999999995 79.298 C 50.69799999999999 79.298 51.3 79.899 51.3 80.598 C 51.3 81.30199999999999 50.699 81.899 50 81.899 z M 59.897999999999996 85.302 C 59.19799999999999 85.302 58.598 84.7 58.598 84.001 C 58.598 83.302 59.198 82.70100000000001 59.897999999999996 82.70100000000001 C 60.598 82.70100000000001 61.19799999999999 83.301 61.19799999999999 84.001 C 61.19799999999999 84.70100000000001 60.60099999999999 85.301 59.897999999999996 85.301 z M 66.301 29.5 C 66.7 29.5 70.501 29.601 70.501 33.699 L 70.501 48.699 L 67.402 48.699 C 66.402 47.3 64.802 46.399 63.004000000000005 46.399 L 58.30500000000001 46.399 L 53.90700000000001 41.499 C 53.20700000000001 40.699000000000005 52.40700000000001 40.101 51.40700000000001 39.601 L 51.40700000000001 29.5 z M 64.102 55.5 C 63.501000000000005 53.699 61.902 52.398 59.902 52.398 C 57.902 52.398 56.302 53.698 55.704 55.5 L 44.2 55.5 C 43.598000000000006 53.699 42 52.398 40 52.398 L 35.2 52.398 L 35.2 49 L 63 49 C 64.2 49 65.2 49.8 65.5 50.898 L 66.2 53.898 C 66.098 54.797000000000004 65.4 55.5 64.5 55.5 z M 61.602000000000004 56.898 C 61.602000000000004 57.797000000000004 60.80200000000001 58.598000000000006 59.902 58.598000000000006 C 59.004 58.598000000000006 58.204 57.797000000000004 58.204 56.898 C 58.204 56 59.004 55.198 59.903 55.198 C 60.801 55.198 61.603 55.898 61.603 56.898 z M 34 55.501 C 33.899 55.501 33.8 55.399 33.8 55.300999999999995 C 33.8 55.199999999999996 33.901999999999994 55.102 34 55.102 L 36 55.102 C 36 55.20399999999999 35.899 55.302 35.899 55.501 z M 39.3 41.399 L 41.8 41.399 L 41.8 46.297 L 36.403 46.297 z M 47.699999999999996 41.399 C 48.3 41.399 48.8 41.5 49.398999999999994 41.699 C 49.49999999999999 41.800999999999995 49.59799999999999 41.800999999999995 49.69899999999999 41.800999999999995 C 50.49999999999999 42.10099999999999 51.19899999999999 42.60099999999999 51.80099999999999 43.300999999999995 L 54.600999999999985 46.40299999999999 L 44.499999999999986 46.398999999999994 L 44.499999999999986 41.5 L 47.698999999999984 41.5 z M 40.102 55.199 C 41 55.2 41.8 56 41.8 56.9 C 41.8 57.798 40.998999999999995 58.6 40.099999999999994 58.6 C 39.20199999999999 58.6 38.400999999999996 57.798 38.400999999999996 56.9 C 38.397 56.001 39.101 55.199999999999996 40.101 55.199999999999996 z M 29.5 33.7 C 29.5 33.001000000000005 29.699 29.501000000000005 33.699 29.501000000000005 L 48.699 29.501000000000005 L 48.699 38.80200000000001 C 48.397999999999996 38.80200000000001 48.097 38.70100000000001 47.8 38.70100000000001 L 35.5 38.70100000000001 C 34.8 38.70100000000001 34.199 39.30200000000001 34.199 40.001000000000005 C 34.199 40.7 34.8 41.30200000000001 35.498999999999995 41.30200000000001 L 36.199 41.30200000000001 L 33.597 45.60300000000001 C 33.297000000000004 46.10300000000001 33.097 46.60300000000001 32.995000000000005 47.10300000000001 L 32.995000000000005 47.205000000000005 L 32.69500000000001 48.705000000000005 L 29.59700000000001 48.705000000000005 L 29.60100000000001 33.70100000000001 z M 33.699 70.50200000000001 C 32.998999999999995 70.50200000000001 29.499 70.302 29.499 66.302 L 29.499 51.30200000000001 L 32.598 51.30200000000001 L 32.598 52.80200000000001 C 31.698 53.30200000000001 31.098 54.20100000000001 31.098 55.30200000000001 C 31.09855150037639 56.902454568455646 32.3955457170657 58.19989633318384 33.996 58.20100000000001 L 35.894000000000005 58.20100000000001 C 36.496 60.001000000000005 38.09400000000001 61.30200000000001 40.09400000000001 61.30200000000001 C 42.09400000000001 61.30200000000001 43.69400000000001 60.00200000000001 44.29200000000001 58.20100000000001 L 48.69100000000001 58.20100000000001 L 48.69100000000001 70.501 z M 66.30099999999999 70.50200000000001 L 51.30099999999999 70.50200000000001 L 51.30099999999999 58.2 L 55.698999999999984 58.2 C 56.30099999999998 60 57.89899999999999 61.301 59.89899999999999 61.301 C 61.89899999999999 61.301 63.499999999999986 60.001000000000005 64.09799999999998 58.2 L 64.49599999999998 58.2 C 66.89399999999998 58.2 68.89399999999998 56.2 68.89399999999998 53.801 L 68.89399999999998 53.501000000000005 L 68.39399999999998 51.39900000000001 L 70.59399999999998 51.39900000000001 L 70.59399999999998 66.399 C 70.49999999999999 66.699 70.39799999999998 70.501 66.30099999999997 70.501 z M 91.10099999999998 63.400000000000006 C 90.40299999999999 63.400000000000006 89.80099999999999 62.79900000000001 89.80099999999999 62.10000000000001 C 89.80099999999999 61.400000000000006 90.40299999999999 60.79800000000001 91.10099999999998 60.79800000000001 C 91.80099999999999 60.79800000000001 92.40299999999999 61.400000000000006 92.40299999999999 62.09900000000001 C 92.39899999999999 62.802000000000014 91.80099999999999 63.40000000000001 91.10199999999999 63.40000000000001 z M 49.100999999999985 51.80200000000001 C 49.100999999999985 52.50200000000001 48.50099999999998 53.102000000000004 47.80099999999999 53.102000000000004 L 46.30099999999999 53.102000000000004 C 45.600999999999985 53.102000000000004 45.00099999999999 52.502 45.00099999999999 51.80200000000001 C 45.00099999999999 51.10200000000001 45.60099999999999 50.50200000000001 46.30099999999999 50.50200000000001 L 47.80099999999999 50.50200000000001 C 48.50099999999999 50.40000000000001 49.100999999999985 51.00200000000001 49.100999999999985 51.80200000000001 z" stroke-linecap="round" />
</g>
</svg>