<svg version="1.2" xmlns="http://www.w3.org/2000/svg" viewBox="0 0 91 91" width="91" height="91">
	<title>Circular Logo</title>
	<defs>
		<clipPath id="circleClip">
			<circle cx="45.5" cy="45.5" r="45.5" />
		</clipPath>
	</defs>
	<style>
		.s0 { fill: #0d0d0d } 
	</style>
	<g clip-path="url(#circleClip)">
		<circle cx="45.5" cy="45.5" r="45.5" fill="#ffffff"/>
		<path fill-rule="evenodd" class="s0" d="m91.1 58.1c0 2.2-1.8 4-4 4-1.7 0-3.1-1.1-3.7-2.6h-4.8c-0.4 0-0.9-0.2-1.1-0.6l-2.8-4.2h-5.5v5.9h4.7c0.7 0 1.3 0.6 1.3 1.3 0 0.7-0.6 1.3-1.3 1.3h-4.7c-0.3 2.3-1.8 5.6-6 6v4.7c0 0.7-0.6 1.3-1.3 1.3-0.7 0-1.3-0.6-1.3-1.3v-4.7h-7.1v0.9l3.3 2.2c0.4 0.2 0.6 0.7 0.6 1.1v2.9c1.5 0.5 2.6 2 2.6 3.7 0 2.2-1.8 4-4 4-2.2 0-4-1.8-4-4 0-1.7 1.1-3.1 2.6-3.7v-2.2l-3.3-2.2c-0.4-0.2-0.6-0.6-0.6-1.1v-1.6h-3.3v3.7c1.5 0.5 2.6 2 2.6 3.7 0 2.2-1.8 4-4 4-2.2 0-4-1.8-4-4 0-1.7 1.1-3.1 2.6-3.7v-3.7h-4.6v6.2c0 0.4-0.2 0.9-0.6 1.1l-4.2 2.8v4c1.5 0.5 2.6 2 2.6 3.7 0 2.2-1.8 4-4 4-2.2 0-4-1.8-4-4 0-1.7 1.1-3.1 2.6-3.7v-4.8c0-0.4 0.2-0.9 0.6-1.1l4.2-2.8v-5.5h-5.9v4.7c0 0.7-0.6 1.3-1.3 1.3-0.7 0-1.3-0.6-1.3-1.3v-4.7c-2.3-0.3-5.6-1.8-6-6h-4.7c-0.7 0-1.3-0.6-1.3-1.3 0-0.7 0.6-1.3 1.3-1.3h4.7v-7.1h-0.9l-2.2 3.3c-0.2 0.4-0.7 0.6-1.1 0.6h-2.9c-0.5 1.5-2 2.6-3.7 2.6-2.2 0-4-1.8-4-4 0-2.2 1.8-4 4-4 1.7 0 3.1 1.1 3.7 2.6h2.2l2.2-3.3c0.2-0.4 0.6-0.6 1.1-0.6h1.6v-3.3h-3.7c-0.5 1.5-2 2.6-3.7 2.6-2.2 0-4-1.8-4-4 0-2.2 1.8-4 4-4 1.7 0 3.1 1.1 3.7 2.6h3.7v-4.6h-6.2c-0.4 0-0.9-0.2-1.1-0.6l-2.8-4.2h-4c-0.5 1.5-2 2.6-3.7 2.6-2.2 0-4-1.8-4-4 0-2.2 1.8-4 4-4 1.7 0 3.1 1.1 3.7 2.6h4.8c0.4 0 0.9 0.2 1.1 0.6l2.8 4.2h5.5v-5.9h-4.7c-0.7 0-1.3-0.6-1.3-1.3 0-0.7 0.6-1.3 1.3-1.3h4.7c0.3-2.3 1.8-5.6 6-6v-4.7c0-0.7 0.6-1.3 1.3-1.3 0.7 0 1.3 0.6 1.3 1.3v4.7h7.1v-0.9l-3.3-2.2c-0.4-0.2-0.6-0.7-0.6-1.1v-2.9c-1.5-0.5-2.6-2-2.6-3.7 0-2.2 1.8-4 4-4 2.2 0 4 1.8 4 4 0 1.7-1.1 3.1-2.6 3.7v2.2l3.3 2.2c0.4 0.2 0.6 0.6 0.6 1.1v1.6h3.3v-3.7c-1.5-0.5-2.6-2-2.6-3.7 0-2.2 1.8-4 4-4 2.2 0 4 1.8 4 4 0 1.7-1.1 3.1-2.6 3.7v3.7h4.6v-6.2c0-0.4 0.2-0.9 0.6-1.1l4.2-2.8v-4c-1.5-0.5-2.6-2-2.6-3.7 0-2.2 1.8-4 4-4 2.2 0 4 1.8 4 4 0 1.7-1.1 3.1-2.6 3.7v4.8c0 0.4-0.2 0.9-0.6 1.1l-4.2 2.8v5.5h5.9v-4.7c0-0.7 0.6-1.3 1.3-1.3 0.7 0 1.3 0.6 1.3 1.3v4.7c2.3 0.3 5.6 1.8 6 6h4.7c0.7 0 1.3 0.6 1.3 1.3 0 0.7-0.6 1.3-1.3 1.3h-4.7v7.1h0.9l2.2-3.3c0.2-0.4 0.7-0.6 1.1-0.6h2.9c0.5-1.5 2-2.6 3.7-2.6 2.2 0 4 1.8 4 4 0 2.2-1.8 4-4 4-1.7 0-3.1-1.1-3.7-2.6h-2.2l-2.2 3.3c-0.2 0.4-0.7 0.6-1.1 0.6h-1.6v3.3h3.7c0.5-1.5 2-2.6 3.7-2.6 2.2 0 4 1.8 4 4 0 2.2-1.8 4-4 4-1.7 0-3.1-1.1-3.7-2.6h-3.7v4.6h6.2c0.4 0 0.9 0.2 1.1 0.6l2.8 4.2h4c0.5-1.5 2-2.6 3.7-2.6 2.2 0 4 1.8 4 4zm-15.8-12.1c0 0.7 0.6 1.3 1.3 1.3 0.7 0 1.3-0.6 1.3-1.3 0-0.7-0.6-1.3-1.3-1.3-0.7 0-1.3 0.6-1.3 1.3zm3.4-9.9c0 0.7 0.6 1.3 1.3 1.3 0.7 0 1.3-0.6 1.3-1.3 0-0.7-0.6-1.3-1.3-1.3-0.7 0-1.3 0.6-1.3 1.3zm-21.9-31.2c0 0.7 0.6 1.3 1.3 1.3 0.7 0 1.3-0.6 1.3-1.3 0-0.7-0.6-1.3-1.3-1.3-0.7 0-1.3 0.6-1.3 1.3zm-12.1 10.5c0 0.7 0.6 1.3 1.3 1.3 0.7 0 1.3-0.6 1.3-1.3 0-0.7-0.6-1.3-1.3-1.3-0.7 0-1.3 0.6-1.3 1.3zm-9.9-3.4c0 0.7 0.6 1.3 1.3 1.3 0.7 0 1.3-0.6 1.3-1.3 0-0.7-0.6-1.3-1.3-1.3-0.7 0-1.3 0.6-1.3 1.3zm-29.4 23.1q0.2-0.1 0.4-0.3 0.2-0.2 0.3-0.4 0.1-0.2 0.1-0.5c0-0.7-0.6-1.3-1.3-1.3-0.7 0-1.3 0.6-1.3 1.3 0 0.7 0.6 1.3 1.3 1.3q0.3 0 0.5-0.1zm11.3 10.9c0-0.7-0.6-1.3-1.3-1.3-0.7 0-1.3 0.6-1.3 1.3 0 0.7 0.6 1.3 1.3 1.3 0.7 0 1.3-0.6 1.3-1.3zm-3.4 9.9c0-0.7-0.6-1.3-1.3-1.3-0.7 0-1.3 0.6-1.3 1.3 0 0.7 0.6 1.3 1.3 1.3 0.7 0 1.3-0.6 1.3-1.3zm21.1 32.4q0.2-0.1 0.4-0.3 0.2-0.2 0.3-0.4 0.1-0.2 0.1-0.5c0-0.7-0.6-1.3-1.3-1.3-0.7 0-1.3 0.6-1.3 1.3 0 0.7 0.6 1.3 1.3 1.3q0.3 0 0.5-0.1zm12.9-11.7c0-0.7-0.6-1.3-1.3-1.3-0.7 0-1.3 0.6-1.3 1.3 0 0.7 0.6 1.3 1.3 1.3 0.7 0 1.3-0.6 1.3-1.3zm9.9 3.4c0-0.7-0.6-1.3-1.3-1.3-0.7 0-1.3 0.6-1.3 1.3 0 0.7 0.6 1.3 1.3 1.3 0.7 0 1.3-0.6 1.3-1.3zm-9.8-54.5v10.1c1 0.5 1.8 1.1 2.5 1.9l4.4 4.9h4.7c1.8 0 3.4 0.9 4.4 2.3h3.1v-15c0-4.1-3.8-4.2-4.2-4.2zm13.1 26c0.9 0 1.6-0.7 1.7-1.6l-0.7-3c-0.3-1.1-1.3-1.9-2.5-1.9h-27.8v3.4h4.8c2 0 3.6 1.3 4.2 3.1h11.5c0.6-1.8 2.2-3.1 4.2-3.1 2 0 3.6 1.3 4.2 3.1zm6.1 10.9v-15h-2.2l0.5 2.1v0.3c0 2.4-2 4.4-4.4 4.4h-0.4c-0.6 1.8-2.2 3.1-4.2 3.1-2 0-3.6-1.3-4.2-3.1h-4.4v12.3h15c4.1 0 4.2-3.8 4.3-4.1zm-21.9 4.1v-12.3h-4.4c-0.6 1.8-2.2 3.1-4.2 3.1-2 0-3.6-1.3-4.2-3.1h-1.9q-0.6 0-1.1-0.2-0.5-0.2-1-0.6-0.4-0.5-0.6-1-0.2-0.5-0.2-1.1c0-1.1 0.6-2 1.5-2.5v-1.5h-3.1v15c0 4 3.5 4.2 4.2 4.2zm-19.1-36.8v15h3.1l0.3-1.5v-0.1q0.2-0.7 0.6-1.5l2.6-4.3h-0.7c-0.7 0-1.3-0.6-1.3-1.3 0-0.7 0.6-1.3 1.3-1.3h12.3c0.3 0 0.6 0.1 0.9 0.1v-9.3h-15c-4 0-4.2 3.5-4.2 4.2zm18.1 7.8h-3.2v4.9h10.1l-2.8-3.1q-0.9-1-2.1-1.5c-0.1 0-0.2 0-0.3-0.1-0.6-0.2-1.1-0.3-1.7-0.3zm-9.3 15.4c0 0.9 0.8 1.7 1.7 1.7 0.9 0 1.7-0.8 1.7-1.7 0-0.9-0.8-1.7-1.7-1.7-1 0-1.7 0.8-1.7 1.7zm-2-10.6h5.4v-4.9h-2.5zm-0.5 9.2c0-0.2 0.1-0.3 0.1-0.4h-2c-0.1 0-0.2 0.1-0.2 0.2 0 0.1 0.1 0.2 0.2 0.2zm24-0.3c-0.9 0-1.7 0.8-1.7 1.7 0 0.9 0.8 1.7 1.7 1.7 0.9 0 1.7-0.8 1.7-1.7 0-1-0.8-1.7-1.7-1.7zm32.5 6.9c0-0.7-0.6-1.3-1.3-1.3-0.7 0-1.3 0.6-1.3 1.3 0 0.7 0.6 1.3 1.3 1.3 0.7 0 1.3-0.6 1.3-1.3zm-43.3-10.3c0 0.7-0.6 1.3-1.3 1.3h-1.5c-0.7 0-1.3-0.6-1.3-1.3 0-0.7 0.6-1.3 1.3-1.3h1.5c0.7-0.1 1.3 0.5 1.3 1.3z"/>
	</g>
</svg>
