<svg xmlns="http://www.w3.org/2000/svg" version="1.1" xlink="http://www.w3.org/1999/xlink" xmlns:svgjs="http://svgjs.com/svgjs" width="100%" height="100%" viewBox="4.905997276306152 4.800006866455078 90.19599914550781 90.19699096679688"><g fill="#0d0d0d"><path d="M91.102 58.102c-1.7 0-3.2 1.102-3.7 2.602h-4l-2.8-4.2c-.2-.398-.7-.601-1.102-.601h-6.199V51.3h3.7c.601 1.5 2 2.602 3.699 2.602 2.199 0 4-1.801 4-4 0-2.2-1.801-4-4-4-1.7 0-3.2 1.101-3.7 2.601h-3.699v-3.3h1.602c.398 0 .898-.2 1.101-.602l2.2-3.3h2.199c.601 1.5 2 2.6 3.699 2.6 2.2 0 4-1.8 4-4 0-2.198-1.8-4-4-4-1.7 0-3.2 1.102-3.7 2.602h-2.898c-.398 0-.898.2-1.101.602l-2.2 3.3h-.898v-7.1h4.7c.699 0 1.3-.602 1.3-1.302 0-.699-.601-1.3-1.3-1.3h-4.7c-.398-4.2-3.699-5.7-6-6v-4.7c0-.699-.601-1.3-1.3-1.3-.7 0-1.301.601-1.301 1.3v4.7h-5.899v-5.5l4.2-2.801c.398-.2.6-.7.6-1.102v-4.8c1.5-.602 2.603-2 2.603-3.7 0-2.199-1.801-4-4-4s-4 1.801-4 4c0 1.7 1.101 3.2 2.601 3.7v4l-4.2 2.8c-.398.2-.6.7-.6 1.102v6.199h-4.602v-3.7c1.5-.6 2.601-2 2.601-3.698 0-2.2-1.8-4-4-4-2.199 0-4 1.8-4 4 0 1.699 1.102 3.199 2.602 3.699v3.699h-3.3V25c0-.5-.2-.898-.602-1.101l-3.301-2.2V19.5c1.5-.601 2.601-2 2.601-3.699 0-2.199-1.8-4-4-4-2.199 0-4 1.801-4 4 0 1.7 1.102 3.2 2.602 3.7v2.898c0 .398.2.898.602 1.101l3.3 2.2v.898h-7.101v-4.7c0-.698-.602-1.3-1.301-1.3s-1.3.602-1.3 1.3v4.7c-4.2.399-5.7 3.7-6 6h-4.7c-.7 0-1.3.602-1.3 1.3 0 .7.6 1.302 1.3 1.302h4.7v5.898h-5.5l-2.802-4.2c-.199-.398-.699-.6-1.101-.6h-4.801c-.602-1.5-2-2.602-3.7-2.602-2.198 0-4 1.8-4 4 0 2.199 1.802 4 4 4 1.7 0 3.2-1.102 3.7-2.602h4l2.8 4.2c.2.398.7.6 1.102.6h6.2v4.602h-3.7c-.601-1.5-2-2.601-3.699-2.601-2.199 0-4 1.8-4 4s1.801 4 4 4c1.7 0 3.2-1.102 3.7-2.602h3.699v3.301h-1.602c-.5 0-.898.2-1.102.602l-2.199 3.3h-2.199c-.602-1.5-2-2.601-3.7-2.601-2.198 0-4 1.8-4 4s1.802 4 4 4c1.7 0 3.2-1.102 3.7-2.602h2.898c.399 0 .899-.199 1.102-.601l2.2-3.301h.898v7.101h-4.7c-.699 0-1.3.602-1.3 1.301s.601 1.301 1.3 1.301h4.7c.398 4.2 3.699 5.7 6 6v4.7c0 .698.601 1.3 1.3 1.3.7 0 1.301-.601 1.301-1.3v-4.7h5.899v5.5l-4.2 2.8c-.398.2-.601.7-.601 1.102v4.801c-1.5.602-2.602 2-2.602 3.7 0 2.199 1.801 4 4 4s4-1.801 4-4c0-1.7-1.101-3.2-2.601-3.7v-4l4.199-2.8c.398-.2.601-.7.601-1.102v-6.2h4.602v3.7c-1.5.601-2.602 2-2.602 3.7 0 2.198 1.801 4 4 4s4-1.802 4-4c0-1.7-1.101-3.2-2.601-3.7v-3.7h3.3v1.602c0 .5.2.899.602 1.102l3.301 2.2v2.198c-1.5.602-2.602 2-2.602 3.7 0 2.199 1.801 4 4 4s4-1.801 4-4c0-1.7-1.101-3.2-2.601-3.7V77.4c0-.399-.2-.899-.602-1.102l-3.3-2.199V73.2h7.101v4.699c0 .7.602 1.3 1.3 1.3.7 0 1.302-.6 1.302-1.3v-4.7c4.199-.398 5.699-3.699 6-6h4.699c.699 0 1.3-.6 1.3-1.3 0-.7-.601-1.301-1.3-1.301h-4.7V58.7h5.5l2.801 4.199c.2.398.7.601 1.102.601h4.8c.602 1.5 2 2.602 3.7 2.602 2.2 0 4-1.8 4-4 0-2.203-1.8-4-4-4zm-10.5-9.402c.7 0 1.3.601 1.3 1.3s-.6 1.301-1.3 1.301c-.7 0-1.3-.601-1.3-1.3s.597-1.301 1.3-1.301zM84 38.8c.7 0 1.301.602 1.301 1.301 0 .7-.601 1.3-1.3 1.3s-1.301-.6-1.301-1.3c0-.703.601-1.3 1.3-1.3zM62.102 7.602c.7 0 1.301.602 1.301 1.301 0 .7-.601 1.3-1.3 1.3-.7 0-1.301-.6-1.301-1.3 0-.703.597-1.3 1.3-1.3zM50 18.102c.7 0 1.301.602 1.301 1.301 0 .7-.601 1.3-1.3 1.3s-1.301-.6-1.301-1.3c0-.703.601-1.3 1.3-1.3zM40.102 14.7c.7 0 1.3.602 1.3 1.3s-.6 1.302-1.3 1.302c-.7 0-1.3-.602-1.3-1.301s.597-1.301 1.3-1.301zM8.899 39.2c-.7 0-1.3-.602-1.3-1.3 0-.7.6-1.302 1.3-1.302.7 0 1.3.602 1.3 1.301a1.32 1.32 0 0 1-1.3 1.301zm10.5 12.102c-.7 0-1.3-.602-1.3-1.3s.6-1.302 1.3-1.302c.7 0 1.3.602 1.3 1.301s-.597 1.301-1.3 1.301zM16.001 61.2c-.7 0-1.301-.601-1.301-1.3 0-.7.601-1.301 1.3-1.301s1.301.601 1.301 1.3c0 .704-.601 1.301-1.3 1.301zm21.898 31.2c-.7 0-1.301-.602-1.301-1.301 0-.7.601-1.301 1.3-1.301.7 0 1.301.601 1.301 1.3a1.32 1.32 0 0 1-1.3 1.301zM50 81.9c-.7 0-1.301-.602-1.301-1.301 0-.7.601-1.301 1.3-1.301s1.301.601 1.301 1.3c0 .704-.601 1.301-1.3 1.301zm9.898 3.402c-.7 0-1.3-.602-1.3-1.301s.6-1.3 1.3-1.3c.7 0 1.3.6 1.3 1.3s-.597 1.3-1.3 1.3zM66.301 29.5c.399 0 4.2.101 4.2 4.199v15h-3.099c-1-1.399-2.6-2.3-4.398-2.3h-4.699l-4.398-4.9c-.7-.8-1.5-1.398-2.5-1.898V29.5zm-2.199 26c-.601-1.801-2.2-3.102-4.2-3.102s-3.6 1.3-4.198 3.102H44.2c-.602-1.801-2.2-3.102-4.2-3.102h-4.8V49H63c1.2 0 2.2.8 2.5 1.898l.7 3c-.102.899-.8 1.602-1.7 1.602zm-2.5 1.398c0 .899-.8 1.7-1.7 1.7-.898 0-1.698-.801-1.698-1.7 0-.898.8-1.7 1.699-1.7.898 0 1.7.7 1.7 1.7zM34 55.501c-.101 0-.2-.102-.2-.2 0-.101.102-.199.2-.199h2c0 .102-.101.2-.101.399zm5.3-14.102h2.5v4.898h-5.397zm8.4 0c.6 0 1.1.101 1.699.3.101.102.199.102.3.102.801.3 1.5.8 2.102 1.5l2.8 3.102-10.101-.004V41.5h3.199zm-7.598 13.8C41 55.2 41.8 56 41.8 56.9c0 .898-.801 1.7-1.7 1.7-.898 0-1.699-.802-1.699-1.7-.004-.899.7-1.7 1.7-1.7zM29.5 33.7c0-.699.199-4.199 4.199-4.199h15v9.301c-.301 0-.602-.101-.899-.101H35.5c-.7 0-1.301.601-1.301 1.3s.601 1.301 1.3 1.301h.7l-2.602 4.301c-.3.5-.5 1-.602 1.5v.102l-.3 1.5h-3.098l.004-15.004zm4.199 36.802c-.7 0-4.2-.2-4.2-4.2v-15h3.099v1.5c-.9.5-1.5 1.399-1.5 2.5a2.9 2.9 0 0 0 2.898 2.899h1.898c.602 1.8 2.2 3.101 4.2 3.101s3.6-1.3 4.198-3.101h4.399v12.3zm32.602 0h-15V58.2h4.398c.602 1.8 2.2 3.101 4.2 3.101s3.601-1.3 4.199-3.101h.398c2.398 0 4.398-2 4.398-4.399v-.3l-.5-2.102h2.2v15c-.094.3-.196 4.102-4.293 4.102zm24.8-7.102c-.698 0-1.3-.601-1.3-1.3 0-.7.602-1.302 1.3-1.302.7 0 1.302.602 1.302 1.301-.004.703-.602 1.301-1.301 1.301zm-42-11.598c0 .7-.6 1.3-1.3 1.3h-1.5c-.7 0-1.3-.6-1.3-1.3s.6-1.3 1.3-1.3h1.5c.7-.102 1.3.5 1.3 1.3z"></path></g></svg>